# xmcd
#
# Track frame offsets:
#	150
#	13016
#	24573
#	35041
#	49548
#	61688
#	73090
#	87097
#	100527
#	117999
#	131975
#	143624
#	155622
#	169640
#	181862
#	194630
#	203614
#	214831
#	226621
#	238311
#	253131
#	265959
#	276629
#	291157
#	303982
#
# Disc length: 4251 seconds
#
# Revision: 1
# Processed by: cddbd v1.5.2PL0 Copyright (c) Steve Scherf et al.
# Submitted via: audiograbber 1.83.01
#
DISCID=6e109919
DTITLE=Various Artist - Sweet Jesus
DYEAR=1900
DGENRE=
TTITLE0=Homer Quincy Smith - I Want Jesus To Talk With Me
TTITLE1=Sister Gertrude Morgan - Take The Lord Along With You
TTITLE2=Bill Carlisle - The Heavenly Train
TTITLE3=Lula Collins - This Joy
TTITLE4=Sons of South - Didn't It Rain Children
TTITLE5=Jewell Jubilee Singers - Who Shall Walk in Gethsemane
TTITLE6=Jaybird Coleman - I'm Gonna Cross the River of Jordan Some O' These Day
TTITLE6=s
TTITLE7=Blind Willie Johnson - God Don?t Never Change
TTITLE8=Skip James - I Want To Be More Like Jesus
TTITLE9=Soul Stirrers - I Want To Rest
TTITLE10=Martha Carson - Crying Holy Unto The Lord
TTITLE11=Golden Gate Jubilee Quartet - Job
TTITLE12=Booker White - I Am in the Heavenly Way
TTITLE13=The Staple Singers - Sit Down Servant
TTITLE14=Famous Skylarks - Roll Jordan Roll
TTITLE15=Red Foley and Sister Rosetta Tharpe - Have A Little Talk With Jesus
TTITLE16=Silvertone Singers - Since Jesus Came Into My Heart
TTITLE17=Golden Eagle Gospel Singers - Shake Mother's Hand For Me
TTITLE18=Mahalia Jackson - Walk Over God's Heaven
TTITLE19=Brother Joy May - Wake Me Shake Me
TTITLE20=Kings of Harmony - Little David
TTITLE21=Pilgrim Travellers - Jesus Hits Like An Atom Bomb (1951)
TTITLE22=Slim Ducket and Pig Norwood - I Want To Go Where Jesus Is
TTITLE23=Roosevelt Graves And Brother - Woke Up This Morning
TTITLE24=Tindley Quaker City Gospel Singers - Hallelujah Side
EXTD=
EXTT0=
EXTT1=
EXTT2=
EXTT3=
EXTT4=
EXTT5=
EXTT6=
EXTT7=
EXTT8=
EXTT9=
EXTT10=
EXTT11=
EXTT12=
EXTT13=
EXTT14=
EXTT15=
EXTT16=
EXTT17=
EXTT18=
EXTT19=
EXTT20=
EXTT21=
EXTT22=
EXTT23=
EXTT24=
PLAYORDER=
